# xmcd
#
# Track frame offsets:
#	150
#	13495
#	23010
#	38420
#	51830
#	69795
#	81488
#	97480
#	113045
#	131473
#	141845
#	157963
#	173405
#	180023
#
# Disc length: 2582 seconds
#
# Revision: 0
# Processed by: cddbd v1.4PL0 Copyright (c) Steve Scherf et al.
# Submitted via: audiograbber 1.82.01
#
DISCID=aa0a140e
DTITLE=Garth Brooks - Garth Brooks and the magic of Christmas
DYEAR=1999
DGENRE=Country
TTITLE0=It's the most wonderful time of the year
TTITLE1=Let it snow
TTITLE2=The christmas song
TTITLE3=White christmas
TTITLE4=Baby jesus is born
TTITLE5=God rest ye merry christmas
TTITLE6=Winter wonderland
TTITLE7=Sleigh ride
TTITLE8=Have yourself a merry little christmas
TTITLE9=(There's no place like) Home for the holidays
TTITLE10=Silver bells
TTITLE11=Go tell it on the mountain
TTITLE12=The wise men's journey
TTITLE13=O little town of bethlehem
EXTD=
EXTT0=
EXTT1=
EXTT2=
EXTT3=
EXTT4=
EXTT5=
EXTT6=
EXTT7=
EXTT8=
EXTT9=
EXTT10=
EXTT11=
EXTT12=
EXTT13=
PLAYORDER=
